<?xml version="1.0" standalone="yes"?>
<svg xmlns="http://www.w3.org/2000/svg" width="491" height="508">
<path style="fill:#010202; stroke:none;" d="M0 0L0 508L491 508L491 0L0 0z"/>
<path style="fill:#207289; stroke:none;" d="M207 114L179 143C186.77 137.527 204.752 123.274 207 114z"/>
<path style="fill:#1eb6b8; stroke:none;" d="M208 114C167.743 154.257 128.305 195.328 87.6003 235.117C76.2345 246.227 65.2432 257.757 54 269C50.397 272.603 42.6197 277.889 41.3457 283C40.4524 286.583 44.822 289.805 47.0008 292L68 313C93.8866 338.887 119.721 364.83 145.961 390.343C151.99 396.206 158.029 402.072 164 407.999C166.682 410.661 169.141 414.281 173 413C174.599 419.054 179.068 423.944 185 426L181 419L188 423L187 429L193 424L188 423L189 419L193 423C197.461 422.832 207.688 427.121 209 421L212 425L217 426L221 424L222 420L223 422L224 422L223 419C226.742 415.731 225.037 407.474 224.196 403C221.371 387.979 214.739 376.872 203.996 366C183.787 345.547 163.331 325.331 143 305C123.593 285.593 104.692 266.243 107 237L108 237L109 249L110 249L111 240L112 240L112 252L116 246L118 246C120.443 251.45 125.292 260.262 132 260L134 262L134 263L128 262L128 263L129 265L137 268L137 264C149.461 262.077 164.331 241.669 173 233C200.293 205.707 240.331 175.563 221.138 132C218.067 125.03 214.26 118.503 208 114z"/>
<path style="fill:#207289; stroke:none;" d="M209 114L210 115L209 114M365 284L365 285C355.363 291.789 347.329 301.671 339 310L291 358C276.981 372.019 262.441 385.763 262 407L263 407C263 376.758 295.584 357.55 314 338C317.892 333.869 334.573 317.814 335 318L335 317L353 330C353.737 335.876 371.021 353.213 376.262 347.487C387.88 334.795 381.842 308.95 374.688 296C367.851 283.627 356.874 273.874 347 264C331.803 248.803 316.553 233.687 301.833 218.035C294.98 210.748 280.875 201.598 278 192C270.677 189.661 266.32 173.911 266 167L270 176L274 171C287.786 175.075 306.566 172.335 320 169L319 173L326 170L334 173C334.693 177.142 336.27 177.767 340 176C345.812 186.889 359.418 196.199 368.424 204.664C386.078 221.256 402.867 238.867 420 256L440 276C442.154 278.163 446.726 281.447 445.793 285C444.628 289.439 438.136 293.864 435 297L407 325L317 415C309.047 422.953 300.745 430.681 293.171 438.996C289.836 442.657 285.76 449.247 281 451.079C274.834 453.453 268.798 439.296 267 435C266.06 440.648 275.187 456.047 282 452.338C296.374 444.512 310 424.696 321.525 412.888C349.405 384.326 377.775 356.225 406 328L436 298C439.447 294.553 446.322 289.857 447.669 285.004C448.872 280.668 442.554 276.402 439.924 273.83C430.411 264.528 421.242 254.868 411.768 245.522C379.257 213.449 347.681 180.458 314.997 148.576C306.743 140.524 298.491 132.407 290.475 124.117C287.734 121.283 284.143 115.83 279.951 115.157C276.254 114.564 273.409 119.462 271.695 122.039C266.406 129.99 262.57 139.403 262.035 149C260.002 185.519 286.135 205.592 310.166 229.285C328.447 247.31 345.549 267.241 365 284M210 115L211 116L210 115M211 116L212 117L211 116M212 117L213 118L212 117M213 118L214 119L213 118M214.333 119.667L214.667 120.333L214.333 119.667M215 121L216 122L215 121M216 122L217 123L216 122M217.333 123.667L217.667 124.333L217.333 123.667M218.333 125.667L218.667 126.333L218.333 125.667M219.333 127.667L219.667 128.333L219.333 127.667M220.333 129.667L220.667 130.333L220.333 129.667M221.333 131.667L221.667 132.333L221.333 131.667M222 133L222 136L223 136L222 133M223.333 136.667L223.667 137.333L223.333 136.667M224 139L224 143L225 143L224 139M225 143L225 148L226 148L225 143M177 145L178 146L177 145M226 149L226 162L227 162L226 149M170 151L171 152L170 151M168 153L169 154L168 153M167 154C149.779 171.221 128.016 188.103 114 208C129.245 200.891 143.116 180.884 155 169C158.731 165.269 167.118 159.583 167 154M225 163L225 168L226 168L225 163z"/>
<path style="fill:#1eb6b8; stroke:none;" d="M265 165L266 166L265 165M314 165L314 168L315 168L314 165M266 167C266.153 174.133 269.959 190.346 278 192C279.675 201.809 295.09 211.779 301.833 219C316.507 234.712 331.798 249.798 347 265C356.898 274.898 367.834 284.594 374.688 297C381.551 309.423 388.156 335.835 375.567 347.482C374.204 348.744 372.122 349.626 370.312 348.784C368.074 347.742 366.948 344.109 365.228 342.334C360.235 337.181 354.751 338.057 353 330L335 317L335 318L337 319C326.05 321.994 318.176 332.916 310.282 340.561C290.585 359.635 267.428 376.392 262.754 405C260.75 417.267 263.664 431.253 269.876 442C271.694 445.147 274.969 451.574 279.039 452.079C283.009 452.57 286.651 447.094 289 444.576C296.816 436.194 304.895 428.105 313 420L412 321L439 294C441.521 291.478 447.693 287.167 446.654 283C445.786 279.516 441.421 276.422 439 274L418 253C392.731 227.731 362.385 203.763 340 176C336.44 176.995 335.121 176.589 334 173L326 170L319 173L320 169C305.205 171.108 289.235 174.627 274 171L270 176L266 167M330 167L329 170L330 167z"/>
<path style="fill:#207289; stroke:none;" d="M224 168L224 172L225 172L224 168z"/>
<path style="fill:#1eb6b8; stroke:none;" d="M272 171L273 172L272 171z"/>
<path style="fill:#207289; stroke:none;" d="M223 172L223 175L224 175L223 172z"/>
<path style="fill:#1eb6b8; stroke:none;" d="M335 173L336 174L335 173M337 174L338 175L337 174z"/>
<path style="fill:#207289; stroke:none;" d="M222 175L222 178L223 178L222 175M332 176L333 177L332 176M221.333 178.667L221.667 179.333L221.333 178.667M220.333 180.667L220.667 181.333L220.333 180.667M329 180L330 181L329 180M219.333 182.667L219.667 183.333L219.333 182.667M218.333 184.667L218.667 185.333L218.333 184.667M217 186L216 189L217 186M215 189L216 190L215 189M350 189L351 190L350 189M214.333 190.667L214.667 191.333L214.333 190.667M213 192L214 193L213 192M212 193L213 194L212 193M211 194L212 195L211 194M210 195L211 196L210 195M209 196L208 198L210 198L209 196M207 198L208 199L207 198M206 199L207 200L206 199M205 200L206 201L205 200M204 201L205 202L204 201M203 202L204 203L203 202M202 203L203 204L202 203M201 204L202 205L201 204M200 205L201 206L200 205M199 206L200 207L199 206M198 207L199 208L198 207M113 208L112 210L114 210L113 208M197 208L198 209L197 208M196 209L195 211L197 211L196 209M111 210L112 211L111 210M110 211L111 212L110 211M194 211L195 212L194 211M109 212L110 213L109 212M193 212L194 213L193 212M108 213L109 214L108 213M192 213L193 214L192 213M107 214L108 215L107 214M191 214L192 215L191 214M106 215L107 216L106 215M190 215L191 216L190 215M105 216L106 217L105 216M189 216L190 217L189 216M104 217L105 218L104 217M188 217L189 218L188 217M103 218L102 220L104 220L103 218M187 218L188 219L187 218M186 219L187 220L186 219M101 220L102 221L101 220M185 220L186 221L185 220M100 221L101 222L100 221M184 221L183 223L185 223L184 221M99 222L98 224L100 224L99 222M182 223L183 224L182 223M97 224L98 225L97 224M181 224L182 225L181 224M96 225L97 226L96 225M180 225L181 226L180 225M95 226L96 227L95 226M179 226L178 228L180 228L179 226M94 227L93 229L95 229L94 227M177 228L178 229L177 228M92 229L93 230L92 229M176 229L175 231L177 231L176 229M91 230L88 234L91 230M174 231L175 232L174 231M173 232L174 233L173 232M172 233L173 234L172 233M87 234L85 237L87 234M171 234L170 236L172 236L171 234M169 236L170 237L169 236M84 237L85 238L84 237M107 237C104.506 256.738 113.879 269.581 123 286L124 286C125.275 274.283 146.223 262.621 153 253L137 264L137 268L136 265L129 265L128 263L128 262L134 263L134 262L132 260C125.511 259.877 121.056 250.919 118 246L116 246L112 252L112 240L111 240L110 249L109 249L107 237M168 237L169 238L168 237M83 238L75 247C78.6889 245.278 83.093 242.398 83 238M167 238L168 239L167 238M166 239L167 240L166 239M165 240L166 241L165 240M164 241L165 242L164 241M207 278L233 253L244 244.056L254 252L276 273L253 249L244 242.207L233 251L207 278M163 242L164 243L163 242z"/>
<path style="fill:#f5ad07; stroke:none;" d="M243 243.346C239.249 244.281 236.13 249.065 233.59 251.715C226.428 259.186 219.32 266.677 212 274C209.576 276.425 204.207 280.188 204.207 284C204.207 288.374 211.197 293.197 214 296C225.364 307.363 236.649 316.91 253.999 312.345C262.99 309.979 271.753 298.292 277.999 292C280.178 289.805 284.548 286.583 283.654 283C281.832 275.69 269.192 267.33 264.039 262.004C260.006 257.835 249.343 241.764 243 243.346z"/>
<path style="fill:#207289; stroke:none;" d="M162 243L163 244L162 243M161 244L162 245L161 244M160 245L159 247L161 247L160 245M74 247L68 255L74 247M158 247L157 249L159 249L158 247M156 249L157 250L156 249M153 253L156 250L153 253z"/>
<path style="fill:#cb781e; stroke:none;" d="M233 252L234 253L233 252M256 254L257 255L256 254z"/>
<path style="fill:#207289; stroke:none;" d="M58 265L68 255L58 265z"/>
<path style="fill:#cb781e; stroke:none;" d="M257 255L258 256L257 255M228 257L229 258L228 257M227 258L228 259L227 258M260 258L261 259L260 258M261 259L262 260L261 259M225 260L226 261L225 260M262 260L263 261L262 260M224 261L225 262L224 261M263 261L264 262L263 261M223 262L224 263L223 262M264 262L265 263L264 262M222 263L223 264L222 263M265 263L266 264L265 263M221 264L222 265L221 264M266 264L267 265L266 264z"/>
<path style="fill:#207289; stroke:none;" d="M55 268L58 265L55 268z"/>
<path style="fill:#cb781e; stroke:none;" d="M220 265L221 266L220 265M267 265L268 266L267 265M219 266L220 267L219 266M268 266L269 267L268 266M218 267L219 268L218 267M269 267L270 268L269 267z"/>
<path style="fill:#207289; stroke:none;" d="M50 273L55 268L50 273z"/>
<path style="fill:#1eb6b8; stroke:none;" d="M133 268L131 270L131 271L135 268L133 268z"/>
<path style="fill:#cb781e; stroke:none;" d="M217 268L218 269L217 268M270 268L271 269L270 268M216 269L217 270L216 269M271 269L272 270L271 269M215 270L216 271L215 270M272 270L273 271L272 270M214 271L215 272L214 271M273 271L274 272L273 271M213 272L214 273L213 272M274 272L275 273L274 272z"/>
<path style="fill:#207289; stroke:none;" d="M49 273L50 274L49 273z"/>
<path style="fill:#cb781e; stroke:none;" d="M212 273L213 274L212 273M275 273L276 274L275 273z"/>
<path style="fill:#207289; stroke:none;" d="M48 274L49 275L48 274z"/>
<path style="fill:#cb781e; stroke:none;" d="M211 274L212 275L211 274M276 274L281 279L276 274z"/>
<path style="fill:#207289; stroke:none;" d="M277 274L278 275L277 274M45 278L48 275L45 278z"/>
<path style="fill:#cb781e; stroke:none;" d="M210 275L211 276L210 275z"/>
<path style="fill:#207289; stroke:none;" d="M278 275L279 276L278 275z"/>
<path style="fill:#cb781e; stroke:none;" d="M209 276L210 277L209 276z"/>
<path style="fill:#207289; stroke:none;" d="M279 276L280 277L279 276z"/>
<path style="fill:#cb781e; stroke:none;" d="M208 277L209 278L208 277z"/>
<path style="fill:#207289; stroke:none;" d="M280 277L281 278L280 277M42 281L45 278L42 281z"/>
<path style="fill:#cb781e; stroke:none;" d="M207 278L208 279L207 278M206 279L207 280L206 279M281 279L282 280L281 279z"/>
<path style="fill:#207289; stroke:none;" d="M204 280L205 281L204 280z"/>
<path style="fill:#cb781e; stroke:none;" d="M205 280L206 281L205 280M282 280L284 282L282 280z"/>
<path style="fill:#207289; stroke:none;" d="M283 280L284 281L283 280M40 281L40 283L42 281L40 281z"/>
<path style="fill:#cb781e; stroke:none;" d="M204 281L205 282L204 281z"/>
<path style="fill:#207289; stroke:none;" d="M202 282L203 283L202 282z"/>
<path style="fill:#cb781e; stroke:none;" d="M203 282L204 283L203 282M284 282C282.581 288.219 276.392 292.621 272 296.999C261.766 307.199 246.453 319.377 230.925 310.597C222.839 306.025 217.567 297.33 210 292C216.795 301.646 226.633 309.737 234.924 318.145C237.395 320.651 240.938 325.539 244.985 324.944C248.58 324.415 251.523 319.79 253.95 317.424C262.081 309.497 269.945 301.279 278 293.271C281.007 290.281 286.371 286.395 284 282z"/>
<path style="fill:#207289; stroke:none;" d="M285 282L286 283L285 282M39.3333 283.667L39.6667 284.333L39.3333 283.667z"/>
<path style="fill:#cb781e; stroke:none;" d="M202 283L210 292L202 283z"/>
<path style="fill:#207289; stroke:none;" d="M201 284L202 285L201 284M286 284L287 285L286 284M40 285L41 286L40 285M202 285L203 286L202 285M285 285L286 286L285 285M41 286L42 287L41 286M124 286L125 287L124 286M203 286L204 287L203 286M284 286L285 287L284 286M42 287L43 288L42 287M125 287L126 288L125 287M204 287L205 288L204 287M283 287L284 288L283 287M43 288L44 289L43 288M126 288L133 295L126 288M205 288L206 289L205 288M282 288L283 289L282 288M44 289L45 290L44 289M206 289L207 290L206 289M281 289L282 290L281 289M45 290L46 291L45 290M207 290L208 291L207 290M46 291L47 292L46 291M208 291L209 292L208 291M47 292L48 293L47 292M278 292L279 293L278 292M48 293L49 294L48 293M210 293L211 294L210 293M277 293L278 294L277 293M49 294L50 295L49 294M211 294L212 295L211 294M276 294L277 295L276 294M50 295L51 296L50 295M133 295L135 297L135 295L133 295M212 295L213 296L212 295M275 295L276 296L275 295M51 296L52 297L51 296M213 296L214 297L213 296M52 297L53 298L52 297M135 297L139 301L135 297M214 297L215 298L214 297M53 298L53 300L55 300L53 298M215 298L216 299L215 298M272 298L273 299L272 298M216 299L217 300L216 299M271 299L272 300L271 299M55 300L56 301L55 300M217 300L218 301L217 300M270 300L271 301L270 300M56 301L57 302L56 301M139 301L141 303L141 301L139 301M218 301L219 302L218 301M269 301L270 302L269 301M57 302L58 303L57 302M219 302L220 303L219 302M58 303L59 304L58 303M141 303L142 304L141 303M220 303L221 304L220 303M59 304L60 305L59 304M142 304L143 305L142 304M221 304L222 305L221 304M266 304L267 305L266 304M60 305L61 306L60 305M143 305L144 306L143 305M222 305L223 306L222 305M265 305L266 306L265 305M61 306L61 308L63 308L61 306M144 306L145 307L144 306M223 306L224 307L223 306M264 306L265 307L264 306M145 307L146 308L145 307M224 307L225 308L224 307M263 307L264 308L263 307M63 308L64 309L63 308M146 308L147 309L146 308M225 308L226 309L225 308M64 309L65 310L64 309M147 309L148 310L147 309M226 309L227 310L226 309M65 310L66 311L65 310M148 310L149 311L148 310M227 310L228 311L227 310M260 310L261 311L260 310M66 311L66 313L68 313L66 311M149 311L150 312L149 311M228 311L229 312L228 311z"/>
<path style="fill:#cb781e; stroke:none;" d="M234 311L235 312L234 311z"/>
<path style="fill:#207289; stroke:none;" d="M259 311L260 312L259 311M150 312L151 313L150 312M229 312L230 313L229 312M258 312L259 313L258 312M68 313L69 314L68 313M151 313L152 314L151 313M257 313L258 314L257 313M69 314L69 316L71 316L69 314M152 314L153 315L152 314M231 314L232 315L231 314M153 315L154 316L153 315M71 316L72 317L71 316M154 316L155 317L154 316M233 316L234 317L233 316z"/>
<path style="fill:#f5ad07; stroke:none;" d="M251 316L252 317L251 316z"/>
<path style="fill:#1eb6b8; stroke:none;" d="M338 316L339 317L338 316z"/>
<path style="fill:#207289; stroke:none;" d="M72 317L73 318L72 317M155 317L156 318L155 317M234 317L235 318L234 317M253 317L254 318L253 317M73 318L74 319L73 318M156 318L157 319L156 318M235 318L236 319L235 318M252 318L253 319L252 318z"/>
<path style="fill:#1eb6b8; stroke:none;" d="M333.667 318.333L334.333 318.667L333.667 318.333z"/>
<path style="fill:#207289; stroke:none;" d="M74 319L75 320L74 319M157 319L158 320L157 319M236 319L237 320L236 319M251 319L252 320L251 319M75 320L76 321L75 320M158 320L159 321L158 320M250 320L251 321L250 320M76 321L77 322L76 321M159 321L160 322L159 321M338 321L338 323L340 321L338 321M77 322L78 323L77 322M160 322L161 323L160 322M239 322L240 323L239 322M78 323L79 324L78 323M161 323L162 324L161 323M240 323L241 324L240 323M79 324L79 326L81 326L79 324M162 324L163 325L162 324M241 324L242 325L241 324M163 325L164 326L163 325M245 325L246 326L245 325M329 325L330 326L329 325M81 326L82 327L81 326M164 326L165 327L164 326M338 326L339 327L338 326M82 327L83 328L82 327M165 327L166 328L165 327M83 328L84 329L83 328M166 328L167 329L166 328M84 329L85 330L84 329M167 329L168 330L167 329M85 330L86 331L85 330M168 330L169 331L168 330M86 331L87 332L86 331M169 331L170 332L169 331M87 332L87 334L89 334L87 332M170 332L171 333L170 332M171 333L172 334L171 333M89 334L90 335L89 334M172 334L173 335L172 334M90 335L91 336L90 335M173 335L174 336L173 335M91 336L92 337L91 336M174 336L175 337L174 336M92 337L92 339L94 339L92 337M175 337L176 338L175 337M176 338L177 339L176 338M94 339L95 340L94 339M177 339L178 340L177 339M95 340L96 341L95 340M178 340L179 341L178 340M96 341L97 342L96 341M179 341L180 342L179 341M97 342L97 344L99 344L97 342M180 342L181 343L180 342M181 343L182 344L181 343z"/>
<path style="fill:#1eb6b8; stroke:none;" d="M371 343L373 345L373 343L371 343z"/>
<path style="fill:#207289; stroke:none;" d="M99 344L100 345L99 344M182 344L183 345L182 344M100 345L101 346L100 345M183 345L184 346L183 345M101 346L102 347L101 346M184 346L185 347L184 346M102 347L103 348L102 347M185 347L186 348L185 347M103 348L104 349L103 348M186 348L187 349L186 348M104 349L105 350L104 349M187 349L188 350L187 349M105 350L105 352L107 352L105 350M188 350L189 351L188 350M189 351L190 352L189 351M370.333 351.667L370.667 352.333L370.333 351.667M107 352L107 354L109 354L107 352M190 352L191 353L190 352M191 353L192 354L191 353M109 354L110 355L109 354M192 354L193 355L192 354M110 355L110 357L112 357L110 355M193 355L195 357L195 355L193 355M368.667 356.333L369.333 356.667L368.667 356.333M112 357L113 358L112 357M195 357L196 358L195 357M113 358L114 359L113 358M196 358L197 359L196 358M114 359L115 360L114 359M197 359L198 360L197 359M115 360L115 362L117 362L115 360M198 360L199 361L198 360M199 361L200 362L199 361M117 362L118 363L117 362M200 362L201 363L200 362M118 363L118 365L120 365L118 363M201 363L202 364L201 363M202 364L203 365L202 364M120 365L121 366L120 365M203 365L204 366L203 365M121 366L121 368L123 368L121 366M204 366L205 367L204 366M205 367L206 368L205 367M123 368L126 371L123 368M206 368L208 370L208 368L206 368M208 370L209 371L208 370M126 371L127 372L126 371M209 371L210 372L209 371M127 372L128 373L127 372M210 372L214 377L210 372M128 373L128 375L130 375L128 373M130 375L131 376L130 375M131 376L131 378L133 378L131 376M214 377L217 381L214 377M133 378L134 379L133 378M134 379L134 381L136 381L134 379M136 381L139 384L136 381M217.333 381.667L217.667 382.333L217.333 381.667M218 383C220.716 392.5 230.011 409.746 223 419L224 421L224 422L223 422L222 420L221 424C218.303 423.146 217.614 423.149 217 426L212 425L209 421C205.505 426.391 198.327 422.825 193 423L189 419L188 423L193 424L187 429L188 423L181 419L185 426C179.552 423.164 175.233 418.749 173 413L171 415L149 394C151.841 399.846 157.835 404.241 162.4 408.801C172.527 418.917 182.961 428.741 192.96 438.985C196.25 442.356 203.904 453.502 209.086 452.963C214.762 452.372 219.463 441.548 221.384 437C227.677 422.107 230.717 395.691 218 383M139 384L140 385L139 384M140 385L143 388L140 385M143 388L149 394L143 388M261 408L261 418L262 418L261 408M262 418L263 428L264 428L262 418z"/>
<path style="fill:#1eb6b8; stroke:none;" d="M222 423L223 424L222 423M193 428L193 429L196 430L196 427L193 428z"/>
<path style="fill:#207289; stroke:none;" d="M264 428L264 432L265 432L264 428z"/>
<path style="fill:#1eb6b8; stroke:none;" d="M190.667 432.333L191.333 432.667L190.667 432.333z"/>
<path style="fill:#207289; stroke:none;" d="M265.333 432.667L265.667 433.333L265.333 432.667z"/>
<path style="fill:#1eb6b8; stroke:none;" d="M195 437L196 438L195 437M202 437L202 440L204 440L204 437L202 437M208 450L209 451L208 450z"/>
</svg>
